<svg version="1.1" viewBox="0.0 0.0 902.0 212.0" fill="none" stroke="none" stroke-linecap="square" stroke-miterlimit="10" xmlns:xlink="http://www.w3.org/1999/xlink" xmlns="http://www.w3.org/2000/svg"><clipPath id="p.0"><path d="m0 0l902.0 0l0 212.0l-902.0 0l0 -212.0z" clip-rule="nonzero"/></clipPath><g clip-path="url(#p.0)"><path fill="#000000" fill-opacity="0.0" d="m0 0l902.0 0l0 212.0l-902.0 0z" fill-rule="evenodd"/><path fill="#000000" d="m24.52231 43.0l9.984251 0l0 47.02362l-9.984251 0z" fill-rule="evenodd"/><path fill="#000000" d="m24.52231 90.02362l26.96063 0l0 9.984253l-26.96063 0z" fill-rule="evenodd"/><path fill="#000000" d="m167.02362 43.0l9.984253 0l0 47.02362l-9.984253 0z" fill-rule="evenodd"/><path fill="#000000" d="m150.04724 90.02362l26.960632 0l0 9.984253l-26.960632 0z" fill-rule="evenodd"/><path fill="#000000" d="m51.48294 60.0l24.031494 0l0 66.519684l-24.031494 0z" fill-rule="evenodd"/><path fill="#000000" d="m64.48294 103.0l24.031494 0l0 44.53543l-24.031494 0z" fill-rule="evenodd"/><path fill="#000000" d="m51.48294 143.50131l20.031494 0l0 21.543304l-20.031494 0z" fill-rule="evenodd"/><path fill="#000000" d="m132.98425 143.50131l20.031494 0l0 21.543304l-20.031494 0z" fill-rule="evenodd"/><path fill="#000000" d="m110.98163 103.0l24.031494 0l0 44.53543l-24.031494 0z" fill-rule="evenodd"/><path fill="#000000" d="m126.01575 60.0l24.031494 0l0 66.519684l-24.031494 0z" fill-rule="evenodd"/><path fill="#000000" d="m85.00787 103.0l37.007874 0l0 23.527557l-37.007874 0z" fill-rule="evenodd"/><path fill="#000000" d="m94.2783 70.50131l16.692917 0l0 38.015747l-16.692917 0z" fill-rule="evenodd"/><path fill="#000000" d="m58.48294 52.97638l84.28346 0l0 21.543304l-84.28346 0z" fill-rule="evenodd"/><path fill="#000000" d="m68.732285 43.007874l64.25197 0l0 21.543304l-64.25197 0z" fill-rule="evenodd"/><path fill="#000000" d="m78.514435 26.007874l15.779526 0l0 21.543308l-15.779526 0z" fill-rule="evenodd"/><path fill="#000000" d="m106.23622 26.007874l15.779526 0l0 21.543308l-15.779526 0z" fill-rule="evenodd"/><path fill="#000000" fill-opacity="0.0" d="m211.04724 29.501312l770.96063 0l0 148.66142l-770.96063 0z" fill-rule="evenodd"/><path fill="#000000" d="m243.90662 140.9013l-21.15625 -77.59375l10.109375 0l12.296875 47.59375q0.984375 3.796875 1.859375 7.734375q0.890625 3.9375 1.71875 7.96875q0.84375 4.03125 1.5625 8.3125l-1.1875 0q0.78125 -4.28125 1.609375 -8.3125q0.828125 -4.03125 1.765625 -7.96875q0.9375 -3.9375 1.9375 -7.734375l12.546875 -47.59375l11.25 0l12.453125 47.59375q1.03125 3.796875 1.9375 7.734375q0.921875 3.9375 1.796875 7.96875q0.890625 4.03125 1.671875 8.3125l-1.34375 0q0.78125 -4.28125 1.609375 -8.3125q0.828125 -4.03125 1.765625 -7.96875q0.9375 -3.9375 1.875 -7.734375l12.234375 -47.59375l10.21875 0l-21.25 77.59375l-11.515625 0l-13.328125 -49.15625q-1.296875 -4.796875 -2.5 -10.4375q-1.203125 -5.65625 -2.34375 -13.0625l2.078125 0q-1.140625 6.984375 -2.234375 12.484375q-1.09375 5.484375 -2.609375 11.015625l-13.28125 49.15625l-11.546875 0zm98.8439 -34.890625l0 34.890625l-9.375 0l0 -77.59375l9.375 0l0 33.484375l-1.625 0q2.65625 -8.078125 7.578125 -11.453125q4.921875 -3.390625 11.53125 -3.390625q5.890625 0 10.34375 2.421875q4.453125 2.421875 6.921875 7.296875q2.484375 4.859375 2.484375 12.265625l0 36.96875l-9.4375 0l0 -36.1875q0 -6.71875 -3.515625 -10.515625q-3.515625 -3.8125 -9.609375 -3.8125q-4.15625 0 -7.5 1.828125q-3.328125 1.8125 -5.25 5.3125q-1.921875 3.484375 -1.921875 8.484375zm69.98865 36.25q-5.515625 0 -10.03125 -2.078125q-4.5 -2.09375 -7.15625 -6.09375q-2.65625 -4.015625 -2.65625 -9.75q0 -5.0 1.96875 -8.125q1.984375 -3.125 5.296875 -4.921875q3.3125 -1.796875 7.3125 -2.671875q4.015625 -0.890625 8.078125 -1.40625q5.203125 -0.6875 8.484375 -1.046875q3.28125 -0.359375 4.859375 -1.25q1.59375 -0.890625 1.59375 -3.015625l0 -0.3125q0 -3.65625 -1.359375 -6.171875q-1.34375 -2.53125 -4.0625 -3.875q-2.703125 -1.359375 -6.765625 -1.359375q-4.15625 0 -7.125 1.296875q-2.96875 1.296875 -4.828125 3.25q-1.84375 1.953125 -2.78125 3.984375l-9.0 -2.96875q2.234375 -5.3125 6.03125 -8.296875q3.8125 -3.0 8.390625 -4.25q4.578125 -1.25 9.0625 -1.25q2.90625 0 6.625 0.703125q3.734375 0.703125 7.1875 2.796875q3.46875 2.078125 5.734375 6.171875q2.265625 4.078125 2.265625 10.90625l0 38.375l-9.21875 0l0 -7.921875l-0.625 0q-0.984375 2.03125 -3.171875 4.203125q-2.1875 2.15625 -5.6875 3.625q-3.484375 1.453125 -8.421875 1.453125zm1.609375 -8.28125q5.203125 0 8.796875 -2.03125q3.59375 -2.03125 5.46875 -5.28125q1.875 -3.265625 1.875 -6.8125l0 -8.0625q-0.5625 0.671875 -2.5 1.21875q-1.921875 0.546875 -4.40625 0.96875q-2.46875 0.40625 -4.78125 0.703125q-2.3125 0.28125 -3.671875 0.4375q-3.375 0.421875 -6.328125 1.4375q-2.9375 1.015625 -4.71875 2.96875q-1.765625 1.953125 -1.765625 5.28125q0 3.015625 1.5625 5.046875q1.5625 2.03125 4.265625 3.078125q2.71875 1.046875 6.203125 1.046875zm64.889984 -51.296875l0 8.015625l-30.09375 0l0 -8.015625l30.09375 0zm-21.34375 -13.859375l9.375 0l0 56.96875q0 3.90625 1.578125 5.703125q1.59375 1.796875 5.296875 1.796875q0.875 0 2.25 -0.203125q1.390625 -0.203125 2.53125 -0.421875l1.921875 7.921875q-1.453125 0.515625 -3.3125 0.78125q-1.84375 0.265625 -3.65625 0.265625q-7.546875 0 -11.765625 -3.984375q-4.21875 -3.984375 -4.21875 -11.125l0 -57.703125zm58.15802 73.125q-7.59375 0 -13.484375 -2.609375q-5.875 -2.609375 -9.34375 -7.234375q-3.46875 -4.640625 -3.71875 -10.78125l10.0 0q0.3125 3.6875 2.515625 6.375q2.21875 2.6875 5.828125 4.125q3.625 1.421875 8.046875 1.421875q4.90625 0 8.671875 -1.6875q3.78125 -1.703125 5.96875 -4.765625q2.1875 -3.078125 2.1875 -7.09375q0 -4.21875 -2.109375 -7.40625q-2.109375 -3.203125 -6.125 -5.03125q-4.0 -1.828125 -9.78125 -1.828125l-6.296875 0l0 -8.59375l6.296875 0q4.53125 0 7.984375 -1.640625q3.46875 -1.640625 5.390625 -4.609375q1.9375 -2.96875 1.9375 -6.96875q0 -3.859375 -1.703125 -6.71875q-1.6875 -2.875 -4.8125 -4.453125q-3.125 -1.59375 -7.34375 -1.59375q-3.953125 0 -7.421875 1.4375q-3.453125 1.421875 -5.671875 4.078125q-2.21875 2.65625 -2.375 6.46875l-9.53125 0q0.21875 -6.09375 3.65625 -10.734375q3.4375 -4.640625 9.078125 -7.234375q5.65625 -2.609375 12.46875 -2.609375q7.25 0 12.484375 2.921875q5.234375 2.90625 8.046875 7.65625q2.8125 4.734375 2.8125 10.25q0 6.5625 -3.46875 11.15625q-3.46875 4.578125 -9.40625 6.34375l0 0.625q4.953125 0.78125 8.46875 3.34375q3.515625 2.546875 5.359375 6.453125q1.859375 3.90625 1.859375 8.796875q0 6.359375 -3.4375 11.359375q-3.4375 5.0 -9.4375 7.890625q-5.984375 2.890625 -13.59375 2.890625zm37.925842 -69.890625l0 -8.75l58.640625 0l0 8.75l-24.328125 0l0 68.84375l-9.890625 0l0 -68.84375l-24.421875 0zm87.3266 70.09375q-7.90625 0 -13.875 -3.75q-5.96875 -3.75 -9.296875 -10.515625q-3.328125 -6.78125 -3.328125 -15.734375q0 -9.109375 3.328125 -15.90625q3.328125 -6.796875 9.296875 -10.546875q5.96875 -3.75 13.875 -3.75q7.96875 0 13.953125 3.75q6.0 3.75 9.328125 10.546875q3.328125 6.796875 3.328125 15.90625q0 8.953125 -3.328125 15.734375q-3.328125 6.765625 -9.328125 10.515625q-5.984375 3.75 -13.953125 3.75zm0 -8.390625q5.890625 0 9.6875 -3.015625q3.796875 -3.015625 5.625 -7.9375q1.828125 -4.921875 1.828125 -10.65625q0 -5.78125 -1.828125 -10.75q-1.828125 -4.96875 -5.625 -8.015625q-3.796875 -3.046875 -9.6875 -3.046875q-5.828125 0 -9.578125 3.046875q-3.75 3.046875 -5.578125 8.0q-1.8125 4.9375 -1.8125 10.765625q0 5.734375 1.8125 10.65625q1.828125 4.921875 5.578125 7.9375q3.75 3.015625 9.578125 3.015625zm40.264587 28.90625l0 -79.984375l9.0625 0l0 9.3125l1.03125 0q1.0 -1.5625 2.765625 -3.921875q1.765625 -2.375 5.09375 -4.25q3.34375 -1.875 9.015625 -1.875q7.296875 0 12.84375 3.65625q5.546875 3.640625 8.6875 10.390625q3.15625 6.734375 3.15625 15.953125q0 9.265625 -3.125 16.046875q-3.125 6.765625 -8.671875 10.46875q-5.546875 3.6875 -12.84375 3.6875q-5.515625 0 -8.90625 -1.890625q-3.375 -1.90625 -5.203125 -4.328125q-1.8125 -2.421875 -2.8125 -4.046875l-0.71875 0l0 30.78125l-9.375 0zm25.609375 -28.90625q5.46875 0 9.140625 -2.9375q3.671875 -2.9375 5.515625 -7.90625q1.859375 -4.984375 1.859375 -11.078125q0 -6.03125 -1.828125 -10.90625q-1.8125 -4.875 -5.484375 -7.734375q-3.671875 -2.859375 -9.203125 -2.859375q-5.359375 0 -9.0 2.703125q-3.640625 2.703125 -5.5 7.53125q-1.84375 4.8125 -1.84375 11.265625q0 6.453125 1.875 11.40625q1.875 4.953125 5.546875 7.734375q3.671875 2.78125 8.921875 2.78125zm39.696777 7.140625l0 -58.21875l9.375 0l0 58.21875l-9.375 0zm4.734375 -67.75q-2.65625 0 -4.578125 -1.828125q-1.921875 -1.828125 -1.921875 -4.375q0 -2.609375 1.921875 -4.390625q1.921875 -1.796875 4.578125 -1.796875q2.71875 0 4.640625 1.796875q1.921875 1.78125 1.921875 4.390625q0 2.546875 -1.921875 4.375q-1.921875 1.828125 -4.640625 1.828125zm44.783936 69.0q-7.90625 0 -13.875 -3.75q-5.96875 -3.75 -9.296875 -10.515625q-3.328125 -6.78125 -3.328125 -15.734375q0 -9.109375 3.328125 -15.90625q3.328125 -6.796875 9.296875 -10.546875q5.96875 -3.75 13.875 -3.75q4.21875 0 7.96875 1.09375q3.75 1.09375 6.84375 3.15625q3.109375 2.046875 5.34375 5.046875q2.234375 3.0 3.4375 6.796875l-9.015625 2.546875q-0.625 -2.234375 -1.921875 -4.109375q-1.296875 -1.875 -3.15625 -3.25q-1.84375 -1.390625 -4.25 -2.140625q-2.390625 -0.75 -5.25 -0.75q-5.828125 0 -9.578125 3.046875q-3.75 3.046875 -5.578125 8.0q-1.8125 4.9375 -1.8125 10.765625q0 5.734375 1.8125 10.65625q1.828125 4.921875 5.578125 7.9375q3.75 3.015625 9.578125 3.015625q2.921875 0 5.359375 -0.78125q2.453125 -0.78125 4.34375 -2.203125q1.90625 -1.4375 3.203125 -3.40625q1.3125 -1.984375 1.9375 -4.328125l8.953125 2.546875q-1.140625 3.90625 -3.40625 6.953125q-2.265625 3.046875 -5.390625 5.21875q-3.125 2.15625 -6.9375 3.265625q-3.796875 1.125 -8.0625 1.125zm57.02527 0q-5.984375 0 -10.65625 -1.734375q-4.65625 -1.75 -7.671875 -5.1875q-3.015625 -3.4375 -4.0625 -8.4375l8.90625 -2.140625q1.25 4.796875 4.703125 7.03125q3.46875 2.234375 8.671875 2.234375q6.09375 0 9.71875 -2.59375q3.625 -2.609375 3.625 -6.203125q0 -3.015625 -2.109375 -5.015625q-2.109375 -2.015625 -6.4375 -3.0l-9.6875 -2.296875q-7.90625 -1.875 -11.765625 -5.796875q-3.859375 -3.9375 -3.859375 -10.078125q0 -5.0 2.8125 -8.828125q2.8125 -3.828125 7.6875 -5.984375q4.875 -2.171875 11.0625 -2.171875q5.984375 0 10.171875 1.796875q4.203125 1.796875 6.828125 4.953125q2.640625 3.140625 3.9375 7.265625l-8.484375 2.1875q-1.203125 -3.125 -4.0 -5.671875q-2.78125 -2.5625 -8.40625 -2.5625q-5.203125 0 -8.671875 2.40625q-3.453125 2.390625 -3.453125 6.03125q0 3.234375 2.34375 5.1875q2.34375 1.953125 7.453125 3.140625l8.796875 2.09375q7.90625 1.875 11.703125 5.8125q3.8125 3.921875 3.8125 9.90625q0 5.109375 -2.890625 9.09375q-2.890625 3.984375 -8.078125 6.28125q-5.171875 2.28125 -12.0 2.28125z" fill-rule="nonzero"/></g></svg>
